# xmcd
#
# Track frame offsets:
#	150
#	14320
#	32297
#	46302
#	59680
#	71825
#	89747
#	101745
#	118457
#	131607
#	144242
#	161270
#	178430
#	194562
#	211220
#	227122
#
# Disc length: 3199 seconds
#
# Revision: 1
# Processed by: cddbd v1.5.1PL2 Copyright (c) Steve Scherf et al.
# Submitted via: audiograbber 1.83.01
#
DISCID=f00c7d10
DTITLE=Tanya Tucker - Thmp035
DYEAR=1900
DGENRE=
TTITLE0=TANYA TUCKER - TEXAS WHEN I DIE
TTITLE1=TANYA TUCKER - I'LL COME BACK AS ANOTHER WOMAN
TTITLE2=TANYA TUCKER - WHATS YOUR MAMA'S NAME
TTITLE3=TANYA TUCKER - SAN ANTONIO STROOL
TTITLE4=TANYA TUCKER - PECOS PROMENADE
TTITLE5=TANYA TUCKER - TWO SPARROWS IN A HURRICANE
TTITLE6=TANYA TUCKER - WOULD YOU LAY WITH ME IN A FIELD OF STONE
TTITLE7=TANYA TUCKER - SOME KIND OF TROUBLE
TTITLE8=TANYA TUCKER - STROUNG ENOUGH TO BEND
TTITLE9=TANYA TUCKER - WALKING SHOES
TTITLE10=TANYA TUCKER - MY ARMS STAY OPEN ALL NIGHT
TTITLE11=TANYA TUCKER - LOVE ME LIKE YOU USED TO
TTITLE12=TANYA TUCKER - SOON
TTITLE13=TANYA TUCKER - TELL ME ABOUT IT
TTITLE14=TANYA TUCKER - OH WHAT IT DID TO ME
TTITLE15=TANYA TUCKER - ONE LOVE AT A TIME
EXTD=
EXTT0=
EXTT1=
EXTT2=
EXTT3=
EXTT4=
EXTT5=
EXTT6=
EXTT7=
EXTT8=
EXTT9=
EXTT10=
EXTT11=
EXTT12=
EXTT13=
EXTT14=
EXTT15=
PLAYORDER=
